/* XPM */
static char *_c6c2ce2300546d2897ddeb6518aae1eQVJeb14RlqjHl6Js[] = {
/* columns rows colors chars-per-pixel */
"40 40 102 2 ",
"   c #93BD4E",
".  c #97B752",
"X  c #98B656",
"o  c #96BB56",
"O  c #99BC56",
"+  c #92B75A",
"@  c #9AB75A",
"#  c #97BB59",
"$  c #98BB5A",
"%  c #95BC61",
"&  c #99BB61",
"*  c #97C253",
"=  c #9CC455",
"-  c #9FCA51",
";  c #9CC25A",
":  c #9FCA58",
">  c #ACDC4E",
",  c #A1CC56",
"<  c #ACC956",
"1  c #A3C459",
"2  c #A3CB5A",
"3  c #ACCD5C",
"4  c #B1CE59",
"5  c #A4D355",
"6  c #A8D456",
"7  c #ABDD53",
"8  c #A6D258",
"9  c #ABD55C",
"0  c #A7D95A",
"q  c #ACDC59",
"w  c #B4D35C",
"e  c #B1DF58",
"r  c #BDDC5D",
"t  c #AEE44F",
"y  c #B1E64E",
"u  c #AEE454",
"i  c #AEE456",
"p  c #AEE856",
"a  c #ACE258",
"s  c #AEE259",
"d  c #ADE658",
"f  c #ACE659",
"g  c #AFE85A",
"h  c #B2E551",
"j  c #B3E551",
"k  c #B2E751",
"l  c #B0E254",
"z  c #B2E454",
"x  c #B3E654",
"c  c #B2E756",
"v  c #B1E852",
"b  c #BCE854",
"n  c #B1E358",
"m  c #B1E45B",
"M  c #B0E55B",
"N  c #B1E65B",
"B  c #BAE358",
"V  c #BCE35A",
"C  c #BCE65B",
"Z  c #B7E959",
"A  c #A3C963",
"S  c #A5CD64",
"D  c #A6CC64",
"F  c #A7CD64",
"G  c #ACCD60",
"H  c #A7D063",
"J  c #A8D063",
"K  c #ACD46B",
"L  c #AFD969",
"P  c #B0D76E",
"I  c #B1DA6E",
"U  c #B3DA6E",
"Y  c #B3DA70",
"T  c #B2E160",
"R  c #C1E25B",
"E  c #C5EB59",
"W  c #C5EA5D",
"Q  c #CBEC5B",
"!  c #CEE95E",
"~  c #CDEB5F",
"^  c #CDEE5C",
"/  c #D4F35D",
"(  c #D8F15B",
")  c #DBF45C",
"_  c #DBF55D",
"`  c #D5F959",
"'  c #E2F45F",
"]  c #C1DF61",
"[  c #C7E063",
"{  c #C5E562",
"}  c #CEE861",
"|  c #CEEA60",
" . c #CEEE64",
".. c #D4EE64",
"X. c #DFEF64",
"o. c #D3F160",
"O. c #D5F463",
"+. c #DBF361",
"@. c #DAF362",
"#. c #DBF562",
"$. c #DCF462",
"%. c #DBF364",
/* pixels */
"# # # U o # o # $  .# l $ $ # # O ; $ $ # # $ Z # # # # # # U o $ O # # { # l $ ",
"# # # # o k # # l # a k l # # # # # ) O O + # $ # , # # # # # o k o # h $ a N c ",
"# c # ; $ # , u $ $ $ l $ # # # $ b o $.a O # # a 5 $ $ c # # # $ 5 a # # $ u # ",
"o + o O # N 8 O N # + o $ # k # n # d # # # # # o Q o o o # O # N , $ a # # O # ",
"# # # O # # 5 O O N o N # # # O k # # # # u 1 O u # # # o $ O # # - O O C # l # ",
"o # # $ # # # # # # o # # # # # # $ # # # O O a N # # o + $ + # # $ + $ # $ $ # ",
"# # O $ u $ $ d k # # # O o # @.# q O.O = o ! # # # O # # O # u $ # d h o # # o ",
"# o $ . O o # $ # # # # # # # o h 7 O # # u # # # # # # # # . O # # # # # # # $ ",
"# ! Z + = } # # # # $ ; 1 # O ! = q u X $ $ $ o.o 2 # # | Z + ; | # # # # ; ; 1 ",
"D # # $ # # # # # h # $ # # $ # # # O $ # $ $ u # 5 # D O # # # # # # # 7 # $ o ",
"# # + $ N # # h $ # o # $ # $ $ $ 7 + o O $ # # o . t O o $ # g $ $ u # # X # $ ",
"O $ c n # # B 0 # 3 # u h $ R ] + = < O # d # # # ; # o + a c # O V 0 o 2 $ l N ",
"# h # o t O # # N $ o o a $ # u $ d o $ a % o # o 5 # # c # o k # # # N + O $ a ",
"# # # # # # # O # # # # + # o # $ $ # # # # # # # # # o # # # # $ $ o # # # o + ",
"# A o S # # # # # r , c w # # # # ; + $ # $ # W o = # # A # S # $ o # O w 8 l w ",
"# o # ( O O.O a _ $ u + O # # O # ; o u # u # O u 8 # # o # ) O O.$ u ) # u o # ",
"l l # # n + 2 $ $ % # # o ) # # # o u O u O # o # # + d c X $ N + 9 # # + # # # ",
"$ , # o $ N 5 o k $ o r # O 0 # N # : O O 8 # # # r # o , $ # # N , # k # # r # ",
"# # # o # # & $ o / # o # # # O o # O # + $ o l k o # # # $ o # # & # # E # # # ",
"O # # # # $ ] & # # O # # # F # # # # # l $ $ o O # # O # # o $ # w % # # o # # ",
"# # 0 + Q $ $ , l o F $ # # # O.# a 3 # # 7 2 # # o # $ + q $ | $ # = k $ J # # ",
"# c $ o o d w O o $ $ $ # # 4 . u q $ Z # u # # $ w # + c $ . O N [ O O $ # $ # ",
"# # +.$ c # # # + $ u y O.# o $ u 7 k # K # # h # . # # # ) $ c # # $ + $ u a O.",
"; K # $ # # # $ $ = # # # # # $ # # # # $ # $ ; # * # ; K # # # # # $ O = # $ $ ",
"$ O $ > # + , h # O + N # # # a O q $ O $ $ ; # u $ ' $ . # y o + 8 k # ; # j X ",
"O $ h q O # 6 # O ) # d l # w # O O $.O # N = $ # , # o O k n o # 2 # # / # a N ",
"L $ o # # # # a # $ # # c # # # o # # # # # # # # # # L # # $ # # o a o # # # h ",
"$ # # # # o ; $ $ $ # k # # # # # o # # O # # + # $ # # # # $ $ # ; O $ + # c $ ",
"$ P $ $ #   # # O # u N O.# # # $ $ o O $ # # $.# , # # U O # #   $ o O $ u l O.",
"$ l O 2 O $ , a O $ + T # # # # + B $ ` N * # # u 8 # # a $ 1 O + 8 a O # + T # ",
"@.k $ $ $ $ 5 O a X # O # O 5 u O + p # a $ b D # # # $.j # # # $ 2 $ d 1 # # $ ",
"$ l $ o + N 8 O y # O %.o $ : o N # # O O u # # $ w # $ l # o # d , O y # O @.# ",
"X # # # # $ # o # # o # # # $ # # # # # # # o u g $ $ $ O # o # # $ o # # O # # ",
"$ # ; # $ $.+ Z o $ # o # $ # # # O p O O.# 7 O + ; L $ # # # # +.$ l o # # # # ",
"# # s # O.+ # O n # Y # $ # # /   7 O # # u O ; # # $ # # N o ..# # # n # Y # # ",
"# O.g O O %.+ ; o # # + # $ $ )   q N # # o # #.# , # # O.N o o %.$ $ # # + o # ",
"# # # 7 y $ # # $ # h c # # # o N # # # # O / o # 5 # # # o c k # o # $ = u h o ",
"# Y # # O $ # # $ + # o o # o o $ $ # # # O + o # # O # U o # # # # $ $ + # o O ",
". # d u + O E u # O $ x N # Q X.+ = $ @ o d + o # # # # % u a $ . ^ a $ # # c N ",
"# c a n ' # r # a o D O N $ + $ o $ o o a t c o # 2 # # a c Z $.# w $ u * H # N "
};
