/* XPM */
static char *_3f34d67ed2b4dceb28426e388208229NozOl5uzQXNPfE5O[] = {
/* columns rows colors chars-per-pixel */
"40 40 191 2 ",
"   c #010101",
".  c #020A00",
"X  c #090907",
"o  c #060909",
"O  c #150809",
"+  c #041500",
"@  c #0B1005",
"#  c #011C04",
"$  c #0D1C00",
"%  c #1B140F",
"&  c #141808",
"*  c #2A1B18",
"=  c #012603",
"-  c #052B01",
";  c #0F2E02",
":  c #1C2305",
">  c #142906",
",  c #0E3801",
"<  c #133C00",
"1  c #282903",
"2  c #313D01",
"3  c #252617",
"4  c #273316",
"5  c #363D16",
"6  c #03073E",
"7  c #04123B",
"8  c #390128",
"9  c #3D2821",
"0  c #5F1C06",
"q  c #53190A",
"w  c #5E1E0B",
"e  c #48041C",
"r  c #56041D",
"t  c #601E0D",
"y  c #522113",
"u  c #66230E",
"i  c #782C09",
"p  c #733B00",
"a  c #722C17",
"s  c #7F341D",
"d  c #5C013D",
"f  c #7E082E",
"g  c #562B2F",
"h  c #59362A",
"j  c #683E30",
"k  c #1F4100",
"l  c #2A4602",
"z  c #264900",
"x  c #354C02",
"c  c #3A5300",
"v  c #3B4A24",
"b  c #475601",
"n  c #465D01",
"m  c #4C5E00",
"M  c #4A6001",
"N  c #495B2A",
"B  c #52692D",
"V  c #5C752F",
"C  c #637A39",
"Z  c #010641",
"A  c #000756",
"S  c #13235B",
"D  c #071769",
"F  c #660042",
"G  c #70004C",
"H  c #6B4B41",
"J  c #76644B",
"K  c #882907",
"L  c #8A270D",
"P  c #86290D",
"I  c #882B0D",
"U  c #8A2711",
"Y  c #842911",
"T  c #8C391D",
"R  c #A03F1F",
"E  c #88072F",
"W  c #900C31",
"Q  c #9A3F22",
"!  c #A53F24",
"~  c #926508",
"^  c #AA4D2B",
"/  c #8A0143",
"(  c #854C4D",
")  c #995F59",
"_  c #8E6157",
"`  c #95675D",
"'  c #98795C",
"]  c #BF7A47",
"[  c #987663",
"{  c #AB6C67",
"}  c #B86B6E",
"|  c #C17645",
" . c #C27947",
".. c #C17949",
"X. c #C86E6A",
"o. c #D17777",
"O. c #D37979",
"+. c #6D883E",
"@. c #6F903F",
"#. c #759D3C",
"$. c #7CA13E",
"%. c #748F40",
"&. c #87AB4A",
"*. c #95BC4E",
"=. c #99BD4D",
"-. c #8BA954",
";. c #8FB859",
":. c #93B755",
">. c #96BB55",
",. c #99BB55",
"<. c #94B65A",
"1. c #99B75B",
"2. c #97BB59",
"3. c #99BC5A",
"4. c #A18B69",
"5. c #93B662",
"6. c #96BA61",
"7. c #CA8756",
"8. c #D28F7A",
"9. c #CFAD71",
"0. c #9BC34F",
"q. c #9BC455",
"w. c #9EC955",
"e. c #9CC259",
"r. c #9CC659",
"t. c #ABDB4F",
"y. c #A1CD56",
"u. c #A8CB56",
"i. c #A2C45D",
"p. c #A3CC5A",
"a. c #A7D456",
"s. c #AAD555",
"d. c #ABDC55",
"f. c #A4D15B",
"g. c #ABDC5B",
"h. c #B4D75A",
"j. c #AEE54E",
"k. c #AFE84E",
"l. c #B3E64F",
"z. c #B5E94F",
"x. c #AEE454",
"c. c #AEE35B",
"v. c #B1E555",
"b. c #B1E855",
"n. c #BDEC57",
"m. c #B3E45B",
"M. c #BDE45C",
"N. c #B3E858",
"B. c #A6CB65",
"V. c #A9D166",
"C. c #ACD26B",
"Z. c #B8DC65",
"A. c #B1D96D",
"S. c #BDEB60",
"D. c #C2DD5E",
"F. c #C3E65B",
"G. c #CBEE5D",
"H. c #C7F059",
"J. c #D8F65C",
"K. c #C9EA66",
"L. c #DAEF62",
"P. c #DDF665",
"I. c #DBFB62",
"U. c #DBF36D",
"Y. c #E3F964",
"T. c #0B1F81",
"R. c #0E2991",
"E. c #0E2D9B",
"W. c #0F2EA0",
"Q. c #DB8A82",
"!. c #CE9481",
"~. c #DA9584",
"^. c #E69E8C",
"/. c #E99E8D",
"(. c #D7B98C",
"). c #E5A28E",
"_. c #E9A88F",
"`. c #ECAD91",
"'. c #EFB795",
"]. c #E8C68D",
"[. c #F1C38F",
"{. c #F9C79F",
"}. c #F5D69F",
"|. c #FDD5A5",
" X c #FEDBA6",
".X c #FEDCA9",
"XX c #82D9F9",
"oX c #ECDCDA",
"OX c #C0EDFA",
"+X c #EBFAFE",
"@X c #FEFEFC",
/* pixels */
"2.v.3.,.3.3.,.3.>.A.2.2.2.2.>.3.M.2.2.,.>.3.C.3.3.3.2.2.v.2.h.3.2.3.3.3.A.3.2.2.",
"w.x.x.2.m.2.>.x.2.2.>.>.2.3.c.<.>.>.,.2.,.P.>.3.2.>.,.g.c.v.,.m.2.2.x.2.2.>.<.>.",
"s.d.>.>.2.c.x.>.p.>.2.q.3.2.2.j.3.3.2.p.G.e.G.q.4       d.>.>.3.c.c.>.q.2.>.c.e.",
"K.<.>.>.b.>.>.b.2.2.>.d.2.2.v.>.>.3.6.p.2.b.3 4 S D Z   2.3.3.x.,.,.c.3.3.>.q.>.",
"3.j.6.I.3.>.>.>.2.,.3.2.2.>.>.v.>.;.x.p.>.V Z 7 D D Z v x.2.H.>.,.>.>.2.2.>.2.2.",
"2.>.2.>.>.>.2.2.2.>.2.2.2.3.3.f.y.3.3.s.2.  E.E.D Z o -.3.2.3.>.3.,.3.>.>.2.>.2.",
"2.3.3.2.N.c.2.3.l.,.2.>.>.2.<.>.q.U.*.>.>.  E.E.W.T.A   q.>.>.N.c.>.,.l.2.3.,.3.",
"2.2.<.2.>.>.3.>.w.      2.2.N                 A R.T.A         2.<.3.>.>.3.,.>.3.",
"p.c.c.>.2.>.>.i.g.  ^.^.P I I i k M M Y K Y m   6 6 X  X X.X  >.>.2.i.g.2.L.,.3.",
"s.2.*.:.2.2.2.2.2.  ^.P XX+X@XoXY   P XX@X@XL m $ g ). X.X^.  2.>.>.2.2.2.2.2.B.",
">.0.2.e.>.c.*.>.m.  O.P XXXXOXoXP m P XXXX@XL m m 2 X  X X  3.2.v.q.2.c.0.6.>.2.",
"q.x.2.m.2.0.=.3.,.  o.  P P U i < < m P P P m m m 2 X ^.o.  K.>.*.q.>.6.m.c.i.>.",
"b.>.2.2.c.6.>.>.x.    = = , < ,     = < M M m m M c <     >.3.v.2.>.3.k.2.<.d.2.",
"<.q.2.3.>.:.2.>.o < =             ~.          . ; z n n = o 3.3.>.>.2.2.2.3.<.2.",
"u.x.m.>.2.2.2.>.C + ,   ( _ ' 4.4.{.4.4.4.4.4.( 3 $ : z . @.2.5.3.3.2.3.2.2.V.2.",
"d.2.m.3.Y.c.>.P.<.5 ;   X.8.'. X.X X X[.[.[.|.~.j *   ; 4 &.%.Y.m.*.I.<.J.e.>.>.",
"3.3.,.h.a.>.y.,.q.2.    R | 9. X X.X X ...] .X.X`.`     6.    V.3.y.3.w.3.2.t.H.",
"2.U.3.3.x.>.3.j.3.2.>.    Q ^ 7. X.X| !     ] .X X4.  6.  ~ ~   3.3.x.2.2.2.x.3.",
"3.,.1.6.>.>.<.3.2.>.>.  R O j 7..X.X|   |  .| .X X'.o.  p ~ ~   ,.2.3.>.3.>.2.3.",
"3.3.2.2.3.j.2.Y.,.6.  ^ | | h 3  X.X.X.. . ..X X`.).~.    ~   3.x.>.J.>.2.>.2.2.",
"2.2.A.2.v.>.3.3.G.:.  O.|..X.X.X.X.X   X.X X X.X X X|./.  p   z.3.2.3.U.>.j.>.2.",
"3.3.<.2.<.>.U.m.w.3.3.  ^.|. X(.     X X.X X X X`.`     p   <.3.3.K.M.2.>.>.M.>.",
"s.c.x.g.<.>.2.2.a.m.1.3.  } Q./.^. X X.X X/.o.    + <     j.V.<.<.>.<.x.c.1.3.2.",
">.2.3.3.>.3.2.3.>.3.3.r.>.%         .           # - < < <   3.,.3.>.3.3.>.>.V.>.",
",.x.3.V.>.v.n.>.r.N.i.w.> ) g O d d E E d d   { * . + . =   i.2.c.S.3.2.x.r.3.>.",
"q.6.B.m.m.5.6.2.h.x.V B H j g e 8 G r r / 8 H ).[ J J : +   f.c.<.e.3.J.b.b.t.2.",
"y.2.2.3.>.m.2.2.2.-..   ~.% e f % F % % W % !.|. X}.].M . . -.>.c.3.2.3.3.2.2.A.",
"2.v.,.1.3.>.3.2.2.  k < < o   3 |.  .X.X  ^.  ^.{.9.M M m <   >.2.3.3.<.V.2.2.2.",
"w.b.N.<.m.2.2.x.1.  = <   8.^._. X X X X X X X  { ' < m m m   m.3.2.k.>.3.>.2.2.",
"s.x.>.2.2.N.x.3.y.*.  =   } O.O.).^.^. X X.X).^.9     = <   3.3.c.c.>.q.2.>.d.2.",
"M.3.2.2.x.>.3.N.2.2.                              .   o     2.x.2.3.m.2.2.,.w.<.",
"2.l.2.I.2.>.>.>.3.>.3.2.  q w w w w s s s s s s s y o 2.x.3.G.3.>.*.3.3.>.3.3.>.",
"2.2.q.3.2.:.5.>.3.>.2.2.  q a s s s s s s s s s s a q   3.q.3.2.<.;.2.2.,.2.2.<.",
"3.2.2.2.m.c.2.>.v.<.3.  0 w w w q T       t s T u w w = = = 2.m.c.2.=.m.>.1.>.3.",
"3.>.2.2.2.>.2.2.y.3.,.  = = 1 t u   x.>.<.    t : = = M m = >.>.,.3.<.,.>.,.2.2.",
"r.i.B.*.<.>.3.F.a.,.F.  x x 2 1 & +.1.e.=.$.+.: l x x z < #.3.3.>.,.D.w.>.F.h.>.",
"s.3.*.:.>.3.3.>.2.3.C + c m c < + 2.2.3.3.3.C - l c n z # 2.w.3.2.2.2.2.2.>.>.B.",
"2.>.2.3.>.c.>.>.v.,.@ < < c b b @ >.>.>.2.>.@ < < z b b @ 2.>.3.v.,.>.c.=.6.2.2.",
"w.x.2.g.3.q.a.2.<.v.c.        % q.>.j.f.6.K.w.          v.2.Z.>.w.p.3.3.m.c.i.:.",
"k.>.>.<.m.<.:.3.x.3.<.e.2.<.:.>.>.*.*.f.>.;.v.,.m.3.,.v.2.>.<.m.>.:.3.k.>.<.t.2."
};
