/* XPM */
static char *aW1hZ2UlMjgxNSUyOQ__[] = {
/* columns rows colors chars-per-pixel */
"40 40 153 2 ",
"   c #5F2D03",
".  c #5F2B09",
"X  c #5C3104",
"o  c #632D02",
"O  c #712D0A",
"+  c #653203",
"@  c #693203",
"#  c #623F05",
"$  c #6E3E05",
"%  c #7B320F",
"&  c #733D12",
"*  c #664B0F",
"=  c #71590F",
"-  c #6D4C15",
";  c #7E4C18",
":  c #6B5811",
">  c #725C19",
",  c #6E691F",
"<  c #736423",
"1  c #8A3311",
"2  c #AE3E28",
"3  c #856A16",
"4  c #887915",
"5  c #8D7B1B",
"6  c #B7412E",
"7  c #8F642C",
"8  c #996D30",
"9  c #A27A3C",
"0  c #A97F40",
"q  c #D84E42",
"w  c #E64C47",
"e  c #EE464A",
"r  c #E64D49",
"t  c #EC4E4B",
"y  c #E4524A",
"u  c #EC504C",
"i  c #EF5450",
"p  c #948221",
"a  c #989427",
"s  c #A49D2D",
"d  c #A4A32B",
"f  c #A8A92E",
"g  c #AEB72F",
"h  c #B4CC2F",
"j  c #B2C031",
"k  c #B9CD37",
"l  c #BAC638",
"z  c #BACA38",
"x  c #BEDA33",
"c  c #BFD438",
"v  c #BFD93C",
"b  c #C2D535",
"n  c #C5D836",
"m  c #C2D63C",
"M  c #C3D83D",
"N  c #8C9F43",
"B  c #BB9B4F",
"V  c #99B547",
"C  c #94B44E",
"Z  c #95B94D",
"A  c #99BC4F",
"S  c #8EAE54",
"D  c #95B654",
"F  c #96BB55",
"G  c #99BC55",
"H  c #94B65A",
"J  c #96BA59",
"K  c #99BB5B",
"L  c #A3BC55",
"P  c #96B662",
"I  c #95BA60",
"U  c #98BA63",
"Y  c #95C34A",
"T  c #99C54E",
"R  c #9ECD4E",
"E  c #95C154",
"W  c #9BC354",
"Q  c #9DCA54",
"!  c #9DC35B",
"~  c #9ECA5A",
"^  c #A2CE4C",
"/  c #A7D64E",
"(  c #A1CC55",
")  c #AFCE55",
"_  c #A4C55C",
"`  c #ABC758",
"'  c #A3CD5A",
"]  c #ADCC5D",
"[  c #A5D454",
"{  c #AAD754",
"}  c #A6DC55",
"|  c #ABDC54",
" . c #A4D35A",
".. c #A9D45A",
"X. c #ACDD5A",
"o. c #B7D557",
"O. c #B1DF55",
"+. c #BBDD56",
"@. c #B4D35C",
"#. c #B6D85B",
"$. c #BBDA5B",
"%. c #ADE44E",
"&. c #B2E34D",
"*. c #B0E84E",
"=. c #AFE651",
"-. c #AEE453",
";. c #AAE952",
":. c #AEE35A",
">. c #AEE659",
",. c #B2E552",
"<. c #B1E454",
"1. c #B2E555",
"2. c #B4E954",
"3. c #B0E15A",
"4. c #B2E45A",
"5. c #BAE25C",
"6. c #B2E95A",
"7. c #BFEA5C",
"8. c #A1C563",
"9. c #A3C962",
"0. c #A8CE66",
"q. c #AAD964",
"w. c #ACD36A",
"e. c #AFDA6C",
"r. c #B0DE63",
"t. c #BBD961",
"y. c #B0DC6D",
"u. c #B0D970",
"i. c #C3CF42",
"p. c #C2D841",
"a. c #C2E55B",
"s. c #C5ED5A",
"d. c #CDEB58",
"f. c #D4ED5C",
"g. c #DBF356",
"h. c #D1F05D",
"j. c #DCF25B",
"k. c #C8E260",
"l. c #C6EB60",
"z. c #C9EB63",
"x. c #C7ED6A",
"c. c #D3EE65",
"v. c #DAEF60",
"b. c #D0EC68",
"n. c #D6F363",
"m. c #DAF563",
"M. c #D5F864",
"N. c #DCF862",
"B. c #DBF16B",
"V. c #DDF572",
"C. c #F7DA89",
"Z. c #F9DE8A",
"A. c #FAE08B",
/* pixels */
"J G J y.G J F J H B.F R G G G K 9.J J J K J G 4.[ J J J F G e.K J F J J n.F G G ",
"J J J @.F s.J ' +.F *. .( J J K _ J t.W D / F F  .( G J J G [ ! Q J  .F K } ' ( ",
">.%.H D ;.I G J J J J K J h.J H K H ;.X.4.J H F J F ! J >.F H -.D F G G J F J K ",
"E E F F J -.X.K / J J { G J 6.H [ F :.J G Y F J G V.F O.Z ' J F J >.K H F J O.F ",
"J F K G J J Q J J l.H T G J G J W K F F F Q @.' [ K K G H W J J K ' W F z.[ H K ",
"E J J J J J z.F J J F F K J J J J F J J ,.J G D F J K w.G K F J K n.F J G J K K ",
"F J H K <.J H -.7.J J J J J G j.H >.v.H H G G K J J J J H J P 5.F F { j.F J J H ",
"J ' J F H ' G I J J J ] J J @.F  .2.K @.F r.D J J F F J Q  .J F ' F Q H J F @.F ",
"J J j.G ,.J J J J K <.~ j.J F J  .= + m M z o 6. .F H J D a.J -.J F J G E ( K d.",
"8.G J F J J J J J :.K J F K H - t + M M M M M p.o :.J J F J J K J J F J >.K J K ",
"F J G ' [ J G &.J G H ! F K % t t u M M M M M d u y 7.J K F F Q G F  .J F _ J 8.",
"J _ <.{ F F } E G M.J 4.<.2 t t t t M M M M M o t t y G J ( G ! J <.T U m.F :.| ",
"E X.J ~ -.J Z K { J J H O t t t t t m M M M M o t t t 6 ;.J >.:.G K K F J F J O.",
"K G K K F J ! J J J F - t t t t t # M m M M M z u t t r o J J J K G G K J K J F ",
"J w.J J F F J J K K >.h e t t t X M a q o p.M M   i r y q ! F J H D J J D ( 6.b.",
"J G J z.K n.J &.k.J o p.m l g n v p.w t t b M M M M p j v @ 5.H &.J -.J D -.K J ",
"s.| J D  .G  .D 9.H M M M M M M m m O t t &.n m m m M M M m J [ G ' J Q F K J J ",
"D 4.J J F 4.} K } 5 M M M M M M M M c p.M M m m M m M M M b J F H >.Q J K F N.J ",
"F J F F J J J G J X M M M M M M M M m m M M M M i.o x m M M S J F K H H h.[ H K ",
"F J J J G $.) ..W X 4 $ f M M M M M M m M M M M e u t v M M J G F @.~  .K J ! G ",
"J G -.F n.G K G ..J u t y 1 p.M M M M M M M M m t t w m M 5 J c.Z F Q K J ~ H G ",
"J 2.J G J ;._ K K K o t t t 3 M M M m m M M M M b o m x k  .J F >.Z ~ F J G j.J ",
"J F 5.W ,.J H K ! G -.: w t o M M m M s $ 8 > - o 5 o , K 5.F :.K J K @.H ' G $.",
"J w.G G J F K H F F F D J C * + N Z.A.A.Z.Z.o F J G H F w.J J J K K H F F J H G ",
"J J F [ J J W 4.J D J W J J G -.* A.A.A.A.A.9 J -.H z.D K F J H Z F  .F J ..K L ",
"F [ | [ o.F 5.U  .#.! } >.J #.J 9 A.A.A.A.A.A.F Q K J J  .Q J t.J x.R R t.J %.O.",
"u.F F F H G K 4.F J J F -.! F J C.C.A.A.A.A.A.< K G F F J J K F J J ..F J J J :.",
"J J J F K J _ K F G G W J J J J Z.Z.A.A.A.A.A.; [ F J F F J F J J 9.J J H F F F ",
"J 9.J K K Q K H ( F <.,.s.J J J 0 Z.Z.Z.A.A.A.7 ..K K K 9.H F ! F J J F F Q >.a.",
"H { K ] K F ! ,.F K J T W F J J < Z.A.A.A.A.A.o :.4.G K 6.J f.F M.D  .F J [ J J ",
"M.O.K F J J -.J :.Z J F H _ F <.G B A.A.A.A.Z.' J J G <.>.F G J F -.J >.F F F J ",
"J ..H F J  .} K ( Q J a.J J ' K  .D o A.Z.& ] J 5.F K J [  .J J I ,.Q J ~ W k.J ",
"J J J ! K J J J F F F J K J F J J J J J J J D -.' J J J J J 9.K H H K J J [ J J ",
"F J J J K N.J -.E J J 8.F J K D F H &.H f.F F K J F w.F H J H E V U [ >.H G 0.F ",
"G F [ F t.J K K ' J 9.K F K J $.Q -.J K J :.F D J G G J J  .F o.J J Q J H G J G ",
"J x.-.G K c.K K J J I [ J F F M.F %.,.H F J J M.J I J J j. .J F _ J F J G F &.J ",
"J J J ..-.F F G ` J -.W J J J J ;.F J J J I :.J ..>.G J J  .F >.J F F n.G Q F F ",
"K 9.F G ~ J F ! G H J J F F F J J Q J F J K F J K J ~ F 0.J F W J J ! J K H F G ",
"G ! 4.%.J J 4.,.F H J ~ :.F X.g.( F J a.F | J F [ ! F b.J Q ;.F F -.-.G H F J X.",
"G | ,.q.j.J d.J 2.F 0.{ 4.K J I ^ H J J :.-.-.F J I J J %. .Z b.J g.( 4.K 8.,.X."
};
