/* XPM */
static char *ac572621d4f24921fb60ccd6ed0759a0tdWUH3970JAnld7n[] = {
/* columns rows colors chars-per-pixel */
"40 40 206 2 ",
"   c #010101",
".  c #0C0604",
"X  c #040009",
"o  c #09050A",
"O  c #0A080C",
"+  c #0E1406",
"@  c #0E1309",
"#  c #111607",
"$  c #111805",
"%  c #11150A",
"&  c #0D0413",
"*  c #0E0A11",
"=  c #0F0418",
"-  c #110515",
";  c #120C11",
":  c #130A1A",
">  c #17141A",
",  c #1B111B",
"<  c #2F3D1B",
"1  c #333F1C",
"2  c #1F1822",
"3  c #231828",
"4  c #26192D",
"5  c #371E2E",
"6  c #241732",
"7  c #281933",
"8  c #322238",
"9  c #34421D",
"0  c #3A4D1F",
"q  c #334021",
"w  c #3D4C22",
"e  c #362A43",
"r  c #5F2F4E",
"t  c #45334C",
"y  c #432E56",
"u  c #5D2D56",
"i  c #473457",
"p  c #4B3455",
"a  c #4C3956",
"s  c #4C3959",
"d  c #553757",
"f  c #692955",
"g  c #732655",
"h  c #4F3661",
"j  c #513663",
"k  c #533D63",
"l  c #563D6D",
"z  c #583E6B",
"x  c #4E3D70",
"c  c #553D71",
"v  c #782B68",
"b  c #6A3A6C",
"n  c #6B3D71",
"m  c #57435C",
"M  c #554064",
"N  c #5A4468",
"B  c #5B426D",
"V  c #5E496C",
"C  c #5C4373",
"Z  c #684A69",
"A  c #685167",
"S  c #634775",
"D  c #604972",
"F  c #644B7C",
"G  c #684B7C",
"H  c #724D75",
"J  c #735679",
"K  c #819F46",
"L  c #839F48",
"P  c #83A145",
"I  c #85A14B",
"U  c #89A649",
"Y  c #8AAD4B",
"T  c #8DB24A",
"R  c #96BD47",
"E  c #94BB4D",
"W  c #98BC4B",
"Q  c #87A252",
"!  c #93B555",
"~  c #95BB55",
"^  c #99BD55",
"/  c #92B758",
"(  c #96BA59",
")  c #99BC5A",
"_  c #A6BE54",
"`  c #96BA60",
"'  c #99BB62",
"]  c #96C24E",
"[  c #9CC44E",
"{  c #9BCB4E",
"}  c #95C252",
"|  c #9BC454",
" . c #9ECA55",
".. c #9CC35B",
"X. c #AACB4D",
"o. c #B5D14C",
"O. c #A4C456",
"+. c #A3CD54",
"@. c #A9CA54",
"#. c #A3CB59",
"$. c #A8C85B",
"%. c #A3D154",
"&. c #AAD654",
"*. c #A7D953",
"=. c #ACDC54",
"-. c #A5D25A",
";. c #AAD55A",
":. c #A5D85C",
">. c #ADDC5A",
",. c #B3DA56",
"<. c #B3D65B",
"1. c #B3DC5B",
"2. c #AEE34F",
"3. c #BCE44E",
"4. c #ADE153",
"5. c #ACE459",
"6. c #B2E555",
"7. c #BCE857",
"8. c #B2E25A",
"9. c #BCE45D",
"0. c #A2C661",
"q. c #A7CC68",
"w. c #AED967",
"e. c #B4D761",
"r. c #B1D76C",
"t. c #BEE263",
"y. c #C4E757",
"u. c #C4EB59",
"i. c #C7F15B",
"p. c #C0DE62",
"a. c #CAEB66",
"s. c #D2EF62",
"d. c #CEF463",
"f. c #634683",
"g. c #6C4784",
"h. c #664A82",
"j. c #6A4B82",
"k. c #704989",
"l. c #775687",
"z. c #745395",
"x. c #7C5796",
"c. c #785992",
"v. c #76559D",
"b. c #7B559D",
"n. c #75599D",
"m. c #7C5A9D",
"M. c #7E6194",
"N. c #7757A1",
"B. c #7A56A1",
"V. c #7559A2",
"C. c #795AA1",
"Z. c #7E60A6",
"A. c #AD3A95",
"S. c #AA3A99",
"D. c #AC3B9A",
"F. c #B23995",
"G. c #B13A9A",
"H. c #BC3F9C",
"J. c #8F4799",
"K. c #854E9C",
"L. c #8A4D9C",
"P. c #95469D",
"I. c #9B439B",
"U. c #924A9B",
"Y. c #994B99",
"T. c #835E96",
"R. c #8E5997",
"E. c #82539F",
"W. c #8D519E",
"Q. c #835D9F",
"!. c #8C5E9F",
"~. c #9E539E",
"^. c #945A9E",
"/. c #A34397",
"(. c #A3429B",
"). c #A74A9A",
"_. c #AE4A9B",
"`. c #B64596",
"'. c #B8459A",
"]. c #A9599A",
"[. c #83629D",
"{. c #8B649E",
"}. c #8B699B",
"|. c #91629E",
" X c #854EA2",
".X c #8B4CA1",
"XX c #9547A2",
"oX c #8354A3",
"OX c #8759A4",
"+X c #8A5EA1",
"@X c #8E58A6",
"#X c #9551A1",
"$X c #9C50A3",
"%X c #965EA4",
"&X c #A542A0",
"*X c #A84BA1",
"=X c #8562A1",
"-X c #8C64A3",
";X c #8C69A2",
":X c #9364A2",
">X c #9967A4",
",X c #936BA1",
"<X c #9D6CAA",
"1X c #A66EA6",
"2X c #C24497",
"3X c #C24697",
/* pixels */
") ! ( r.( ! ) ( / ^  .>...( ( ! ( r.) ! ( ) ( o.} ;.) ( / ~ ~ r.) ( ) ~ ) s.| %.",
") ~ ( ) E 9.( ~ =.' %.;.) ( ) ~ ~ ^ | w.~ ) 1.E =.8.#.` ) ~ ~ ( @.^ ( ( $.) ;.5.",
" .*.) O.+.~ ! ] P K P W R I Q E L _ U U Y R U P P T Y Q P T I $.Y X.Y +.! ) ....",
"X. .} ) ~ :.  ; 3             M             T.            T.        + ( %.~ ~ | ",
"^ ~ ~ ( ( ~         m.            z.            z X           7 = X # | ~ 9.| +.",
"~ ~ ( ( ~ (           o 4             y             p       X     a @ ~ ~ ~ ~ ( ",
") ) W ) &.%.  ; J     B       g.3   J       J a   h.      J F   A   % ;.y.^ ( ~ ",
"^ ) ^ ~ +.~   j.            C.            m.            j.      X   + ] ~ ~ ) ^ ",
"( O.d.~ 4.+.        }.            c.            N             7 -   # ~ ~ / -.-.",
"0.~ ~ ~ ) !               g g u u i p a f g d r a p a e       X   X @ ) ~ 4.) ) ",
") ( / ~ 7.~   , 2         2XN.Y.I.b.-XN./.-XD.L.L.m.v.Z   C.        @ >.( ! ( ( ",
"E @.8.4.~ |         c.    v.H.B.{.`.v.N.{.'.V.:XI.{.[.B       4 -   + %.) 9.! >.",
") %.} | =.(           O 8 Y.L.:XI.~.].v.Y.U.+XXXU.P.,Xb         X h @ ]  .! ) ~ ",
") ) / ( ( (   * C     M   B.L.P.I.L.B.I.B.K.(..XJ.C.(.n   B B   k   @ ~ ( ( ~ ..",
"/ 0.~ q.) ~   G           B.N.#X.XZ.F.N.N.C.N.'.{.`.+XB j.          % ! ( <.$.*.",
"~ ~ } a.! u.        c.    B.B.C.V.,XD.1Xv.;X<Xn.=XA.=XB       7 &   @ 6.;.' 5.~ ",
"i.=.) / } ..              ).).%X XB.~.N.~.J.Q.).V.XXB.S           X $ ~ +.! ^ W ",
") =.} ) ( 8.  : 3         S.x._.(.C.B.;X_.b.'.L. X<XQ.z   x.        # | #.~ ~ u.",
"~ ~ ~ ( ) )         Q.    C.F.B.N.D.n.B.B.A.B.,X/.E.V.B       4 =   @ ) ) d.| ( ",
"~ ( ( ! ~ e.          O 8 ).@XE.I.K.S.%X*XR.m.P.XXI.m.S           B % +. .) ( ) ",
"( ( <./ u.)   ; A     j X V.K.Y.).W.1XD.E.W.`.L.$XV.S.b   H Z   Z   + | +.~ q.) ",
"( u.| ( ;.6.  f.    X     m.v.].^.v.F.|.!.C.b.&XV.H.V.B k.      X   + } ^ ~ ^ e.",
"' / e.@.=.~         [.    B.V.C.>Xv.2Xv.b.b.m.C.;X'.:XC       6 &   + ) @.( &.%.",
") q.~ ) ~ ~               J.K.@XB.N.Y.v..XJ.v.oXV.XXb.B             + ^ ^ ~ ( ) ",
"^ ) | 8.+.~   , >         2XOX/.(.OXb.B._.:XG.#X.X[.C.Z   [.        # =.~ ~ ] +.",
"! &.8.=.@.^         m.    V.S.=X-XA.>Xn.:XD.+X;X(.{.C.z X     4 -   % | %.,...*.",
"q.) ~ ~ | ~           O 8 I.#XE.P.W.(.oXI.%Xb.L.U.(.=Xn           C + -.^ ) ( ~ ",
") ^ ) ..) )   O M     m   C.L.P.P.#XV.I.oXL.P.~.U.-XI.b   k k   a   % ( ( <.~ %.",
") ' ( ( ~ ,.  f.        X N.V.#XL.b.F.=XN.N.=XS.{.3X+XC g.  X X     @ ~  .) *.6.",
"~ ;.) $.+.W   X   X C.    B.N.-Xb.<XF.M.!.}.n.E.v.`.+XV X X   5 &   + =.~ ~ ..%.",
"y.%.~ | ( { X             x Z D c l v c V z D G z v z e             $ ) =.! ) ' ",
"~ ] ~ ~ ( ^   > >           X s   X         c.          X M.        #  .~ 1.O.X.",
"~ ~ ( ) ) ~         [.            b.            M             7 -   % ~ ~ ~ | ) ",
"~ ! ~ ) [ t.          O 8             H             C             S % =.,.) ~ ) ",
") ~ | ) >.)   * a     t     X a 2   j       a e X h       a m X t   % | ( / ) / ",
") e.3./ *.9.  f..     .     v.      X     z.X o   .     j..     .   + ! ( ^ [ %.",
"' ^ ~ #.| !         T.            l.X         X M X X         6 =   + ~ $.*. . .",
") ) ( ~ =.) 9 w 1 1 1 9 q w 9 9 9 < 0 q 1 0 1 1 9 9 q 9 9 9 9 9 w < w ;.! / ) / ",
"_ O.8.6.) ) y.#.| ^ ~ *.~ ~ t.O.:.>.) ( 7.=.) [ ( *.-.~ a.<...;.) ~ 5.4.) O.) %.",
"! ;.} | 4.) ~ %.2.) ~ ( 8.) ( >.~ *.9.~ ..~ =.) ) ( 4.` / 4.~ =.1.~ ..R %./ ) ~ "
};
