/* XPM */
static char *aW1hZ2UlMjgxMyUyOQ__[] = {
/* columns rows colors chars-per-pixel */
"40 40 187 2 ",
"   c #010101",
".  c #0A0604",
"X  c #030A01",
"o  c #0F0E01",
"O  c #010009",
"+  c #16070A",
"@  c #051401",
"#  c #031C02",
"$  c #091A01",
"%  c #161A02",
"&  c #161D0E",
"*  c #040616",
"=  c #00011B",
"-  c #1C1011",
";  c #270907",
":  c #271109",
">  c #3D1509",
",  c #201611",
"<  c #2E1D15",
"1  c #012503",
"2  c #072605",
"3  c #032B03",
"4  c #0E2D00",
"5  c #1A230B",
"6  c #0E3701",
"7  c #133301",
"8  c #123D00",
"9  c #1E2414",
"0  c #222205",
"q  c #232C05",
"w  c #38260C",
"e  c #232B13",
"r  c #293616",
"t  c #323E16",
"y  c #000330",
"u  c #3C1F29",
"i  c #3D2623",
"p  c #491D0E",
"a  c #5E1D0B",
"s  c #611E0C",
"d  c #482307",
"f  c #5A230E",
"g  c #723B00",
"h  c #782E18",
"j  c #7E341D",
"k  c #470032",
"l  c #570038",
"z  c #750628",
"x  c #462D2B",
"c  c #40392C",
"v  c #59302E",
"b  c #6F392E",
"n  c #144100",
"m  c #1A4100",
"M  c #304A01",
"N  c #3A5500",
"B  c #2A4712",
"V  c #404D03",
"C  c #4C5D01",
"Z  c #595204",
"A  c #694407",
"S  c #4E552D",
"D  c #53652E",
"F  c #516F2A",
"G  c #637A3B",
"H  c #000855",
"J  c #010859",
"K  c #142354",
"L  c #020E63",
"P  c #081867",
"I  c #0F2478",
"U  c #72004A",
"Y  c #7A0248",
"T  c #6A4A40",
"R  c #744541",
"E  c #775148",
"W  c #727349",
"Q  c #85290D",
"!  c #88280D",
"~  c #862A10",
"^  c #85331C",
"/  c #91341D",
"(  c #A23E1D",
")  c #A8093A",
"_  c #933A21",
"`  c #926508",
"'  c #9C533B",
"]  c #A24326",
"[  c #AF5A32",
"{  c #8A514F",
"}  c #905554",
"|  c #9C6A5C",
" . c #B56A4C",
".. c #837B78",
"X. c #AC6561",
"o. c #C27746",
"O. c #C27847",
"+. c #C17949",
"@. c #C87062",
"#. c #D27777",
"$. c #D3797A",
"%. c #6A8736",
"&. c #73933A",
"*. c #708A44",
"=. c #7B9B4E",
"-. c #82AC39",
";. c #819D47",
":. c #95BA4E",
">. c #98BA4D",
",. c #94B755",
"<. c #98B655",
"1. c #95BB55",
"2. c #99BC56",
"3. c #94B75A",
"4. c #99B75C",
"5. c #96BB5A",
"6. c #99BC5B",
"7. c #A88F6D",
"8. c #A8906B",
"9. c #BC8376",
"0. c #96BA61",
"q. c #99BC62",
"w. c #C48876",
"e. c #DC9679",
"r. c #E0AA78",
"t. c #99C44F",
"y. c #96C255",
"u. c #9CC554",
"i. c #9DC954",
"p. c #97C058",
"a. c #9DC45A",
"s. c #9EC95B",
"d. c #A5CC4F",
"f. c #A7C656",
"g. c #A1CB55",
"h. c #A2CC59",
"j. c #A5D355",
"k. c #A6DB53",
"l. c #AADB55",
"z. c #AED857",
"x. c #A8D559",
"c. c #A9D65B",
"v. c #ACDB5A",
"b. c #AEE54D",
"n. c #B2E54C",
"m. c #AEE454",
"M. c #AEE957",
"N. c #AEE35A",
"B. c #B1E554",
"V. c #B3E855",
"C. c #B2E45B",
"Z. c #BAE95C",
"A. c #A6CB64",
"S. c #AAD862",
"D. c #AED96C",
"F. c #B0D76E",
"G. c #B3DA70",
"H. c #B1E160",
"J. c #C8EB5D",
"K. c #CFF25F",
"L. c #D7F55B",
"P. c #DDF55C",
"I. c #E0F55E",
"U. c #CFEE64",
"Y. c #D6F666",
"T. c #DAF563",
"R. c #DBF46B",
"E. c #0D2892",
"W. c #0F2D99",
"Q. c #102B94",
"!. c #7FD8F6",
"~. c #DB998A",
"^. c #E59E8C",
"/. c #E89F8A",
"(. c #E5A28C",
"). c #E8A88E",
"_. c #E6A591",
"`. c #EFB997",
"'. c #EDC18D",
"]. c #F4C798",
"[. c #FACFA3",
"{. c #FCD2A4",
"}. c #FFDBA7",
"|. c #FEDBA9",
" X c #81DAFA",
".X c #93DDFB",
"XX c #FEFEFD",
/* pixels */
"5.5.5.D.5.5.1.5.1.T.6.5.1.1.6.5.G.5.5.5.5.5.,.M.m.:.5.6.1.5.D.1.1.1.5.5.Y.5.5.1.",
"5.5.5.:.1.u.5.1.5.1.k.B.V.5.5.6.6.6.K.5.5.v.1.5.m.1.5.1.5.5.:.2.1.5.5.5.:.i.B.n.",
"y.m.1.,.B.>.q.2.5.1.3.5..     ;.3.y.k.M.B.0.5.4.y.1.d.1.m.1.,.B.>.q.2.5.5.1.6.y.",
"B.3.a.5.1.a.m.6.5.5.5.m.  J Q.* X e B.2.0.c.1.5.1.P.6.B.5.l.2.1.5.m.5.5.5.6.m.1.",
"5.5.s.1.5.6.C.1.3.C.g.5.G = P P P K B 6.4.f.Y.2.C.5.5.5.5.S.5.5.5.C.a.3.C.l.5.5.",
"F.5.5.6.1.6.L.1.1.3.,.,.*.= L E.W.I   1.C.6.1.t.5.5.5.D.5.5.6.1.6.T.1.1.5.1.1.5.",
"6.6.6.6.n.5.1.m.P.2.5.2.O J W.W.W.I X 5.6.l.2.1.1.5.5.5.5.5.1.n.5.1.c.I.5.2.1.6.",
"6.3.y.5.6.3.q.5.1.        J W.L y X               ,.5.S       6.5.q.a.5.1.5.<.1.",
"5.6.K.1.C.5.1.5.2.  |.|.|.  H O q Z Q Q ~ C C 8 ~ Q Q  .(.^.  v.6.2.6.5.5.g.1.L.",
"6.1.5.5.1.5.5.1.1.  ^.|.|.^.  V A ' XXXX X!   ! XXXX.X.._ ^.  1.5.5.1.1.N.5.6.6.",
"5.5.5.5.v.1.5.m.5.5.  }.|.  C C A ' XX!.!.! C ! XX!. X../ #.  v.1.1.k.6.5.u.6.5.",
"6.1.l.1.5.5.C.2.5.Y.  #./.  C C C Z ! ! ! C 8 8 Q ! ! > , $.  6.6.m.g.0.T.5.C.m.",
"3.m.6.m.N.1.,.0.6.5.2.    8 C C C C C C 8 1     8 8 3 1 #     m.5.1.0.6.5.1.,.C.",
"5.5.5.5.5.5.a.2.5.5.X 1 C C 8 @ X     X   X ~.          X 1 7 X 5.a.2.5.5.5.1.2.",
"5.D.5.1.3.2.2.y.5.5.%.X m 5 o R | 8.8.8.8.8.].7.8.| { i X 6 @ G 6.6.2.5.2.u.B.Y.",
"5.1.5.B.1.Z.p.b.5.*.-.r 4   i 9.`.}.'.`.`.|.|.}.}.e.@.v X 4 t 6.n.2.b.5.5.V.6.5.",
"j.B.1.1.g.1.j.1.j.    5.    (.[.}.].O.O.+.}.}.}.|.O.] p X   1.d.5.j.3.j.1.3.2.6.",
"1.C.p.5.5.a.B.1.  ` ` O 6.  |.|.r.'   X ( O.}.}. .] +   5 k.5.5.5.B.u.1.6.p.T.3.",
"5.5.2.,.5.6.1.5.  ` ` g   #.|.|.r.O.O.o.  O.}.}.O.X / p & 5.1.5.5.5.5.5.R.l.6.5.",
"s.5.5.5.:.d.f.k.l.  `     ^.^.[.}.].O.O.+.}.|.}.X o.o.[ ^   1.:.<.f.j.l.6.1.A.5.",
"5.4.S.2.T.2.5.5.6.  g   ^.|.}.|.}.}.|.}.}.  |.|.}.}.|.).X.  p.R.2.5.a.5.5.a.2.5.",
"1.C.g.1.1.C.5.1.5.a.  g     ^.{.}.}.|.|.}.}.    }.|.).T 5 l.2.5.C.5.u.5.3.6.T.5.",
"5.5.g.3.l.5.1.1.K.5.v.O   n     b $.(.|.}.|.|.(.^.#.- D 1.l.5.l.5.1.1.U.,.a.a.2.",
"2.F.5.1.5.5.5.0.1.1.O 8 8 8 1 X X O . . . . . . . . =.3.F.5.1.5.5.5.5.2.1.5.5.1.",
"6.0.>.5.1.1.5.m.6.4.  3 @ @ X R x + k k z z k k   { S W 3.y.1.1.2.1.k.6.2.l.5.>.",
"5.m.l.5.L.5.Y.1.B.>.  # % c c w.} u l Y z z U l ; } x D =.&.1.Y.5.R.y.m.2.1.B.m.",
"1.5.5.5.5.1.5.m.1.5.    C |.|.}.`.9.  )     U   )   w.T     1.5.6.5.k.5.5.5.2.B.",
"5.6.5.1.5.5.A.1.1.  8 C C C }.(.E < ^.  |.|.  |..   7 n 8 n   6.6.i.6.5.<.5.2.6.",
"6.1.6.5.6.h.5.2.q.  C C C 8 (., W |.|.|.|.|.}.}.(.(.- $ 8 1   2.2.6.1.6.5.f.B.V.",
"5.V.1.P.2.J.2.B.5.3.  8 1     9.^._.|.|.|.^.^.^.#.#.- @ #   I.6.T.,.l.6.5.x.2.5.",
"V.v.1.1.p.1.l.2.v.6.                                        2.2.,.m.5.l.5.5.u.,.",
"5.6.a.5.5.3.n.1.6.N.g.1.1.  j j j j j j j j a s a s . D 5.k.5.6.3.B.i.5.C.l.6.5.",
"6.5.5.A.5.5.,.<.5.3.a.5.  f j j ^ j ^ ^ j j j j j a . D 5.5.A.6.1.4.5.3.3.x.2.5.",
"5.6.1.6.u.f.1.m.Z.5.2 3 1 a s h ^ h f   X   ^ a s a a ; 9 5.6.f.2.5.k.J.5.5.s.5.",
"6.6.i.6.>.5.3.5.1.3.1 M M , 0 f p : + G G %.: a s 0 5 o & v.p.1.1.3.a.5.5.1.y.6.",
"5.P.v.2.1.f.5.6.2.4.B N N 7 7 w w t B 0.3.5.e p d 7 7 @ e s.1.5.:.5.5.1.3.5.M.q.",
"1.6.6.6.i.6.1.1.H.j.i.3 n C C 7 F 2.6.6.6.p.h.1 8 C C q & u.5.i.6.5.1.c.j.6.6.1.",
"5.q.5.3.b.p.0.C.,.5.y.  C C n 8 4 5 6.0.6.5.6.  C C m 8 7 O ,.b.2.1.v.1.2.<.q.6.",
"L.:.l.N.5.1.m.m.4.4.1.1.    O   F 5.,.R.6.a.1.5.        5 a.C.,.1.n.m.5.2.5.1.B.",
"6.M.a.v.J.1.f.6.a.1.6.u.V.5.6.v.i.c.1.3.N.N.u.1.2.v.6.6.m.u.x.J.5.f.6.s.3.6.t.B."
};
