/* XPM */
static char *_06062ff1e9147849a91f085db3db945ahV1bchn5IggwfhH[] = {
/* columns rows colors chars-per-pixel */
"54 40 226 2 ",
"   c #120F0B",
".  c #291D0A",
"X  c #332C09",
"o  c #2B2810",
"O  c #362A14",
"+  c #3D3719",
"@  c #332B20",
"#  c #3C3627",
"$  c #53170E",
"%  c #4D330E",
"&  c #532C18",
"*  c #47371A",
"=  c #433B1D",
"-  c #553B1A",
";  c #6D231B",
":  c #67361B",
">  c #5A1F20",
",  c #423A24",
"<  c #473D27",
"1  c #533B22",
"2  c #672D23",
"3  c #7A3A26",
"4  c #3C471C",
"5  c #3E4226",
"6  c #4E481A",
"7  c #4B4527",
"8  c #594729",
"9  c #5C4B2C",
"0  c #5B552D",
"q  c #494632",
"w  c #5B4937",
"e  c #5C5736",
"r  c #674C25",
"t  c #64562B",
"y  c #644E35",
"u  c #7A4736",
"i  c #685637",
"p  c #635C35",
"a  c #635D3A",
"s  c #6B5E3B",
"d  c #765938",
"f  c #5E6337",
"g  c #5A6931",
"h  c #63632D",
"j  c #7C6829",
"k  c #656334",
"l  c #696435",
"z  c #65623B",
"x  c #6B633C",
"c  c #646A3A",
"v  c #686B38",
"b  c #796638",
"n  c #525142",
"m  c #675E44",
"M  c #775D44",
"N  c #5F7B5B",
"B  c #646344",
"V  c #6E6445",
"C  c #6B6B47",
"Z  c #766645",
"A  c #7E7546",
"S  c #696B5A",
"D  c #766858",
"F  c #6D7B5D",
"G  c #7B7455",
"H  c #747468",
"J  c #980201",
"K  c #B41B23",
"L  c #8B2825",
"P  c #803F2B",
"I  c #A23A36",
"U  c #B83D3E",
"Y  c #D03A38",
"T  c #945F1D",
"R  c #85631E",
"E  c #894A38",
"W  c #96483C",
"Q  c #A75636",
"!  c #896E3F",
"~  c #926D31",
"^  c #897439",
"/  c #A37E3D",
"(  c #C74737",
")  c #D43E51",
"_  c #E03645",
"`  c #825C4A",
"'  c #BA4749",
"]  c #A8594A",
"[  c #BD5E48",
"{  c #846346",
"}  c #876949",
"|  c #956D44",
" . c #8B7545",
".. c #987748",
"X. c #9D7B49",
"o. c #846657",
"O. c #976959",
"+. c #847759",
"@. c #977956",
"#. c #B86B48",
"$. c #A27A4B",
"%. c #A66356",
"&. c #A57D56",
"*. c #966767",
"=. c #8B7964",
"-. c #967A65",
";. c #9C7A65",
":. c #A57871",
">. c #D14444",
",. c #C35C45",
"<. c #C8564B",
"1. c #76846E",
"2. c #9A824A",
"3. c #8C835C",
"4. c #958356",
"5. c #A38558",
"6. c #AB9453",
"7. c #B99A58",
"8. c #B9A259",
"9. c #94836B",
"0. c #8B8775",
"q. c #978876",
"w. c #9A9177",
"e. c #BB9C65",
"r. c #AA8870",
"t. c #A8967C",
"y. c #C5984B",
"u. c #CCA84B",
"i. c #C8A658",
"p. c #DAAC55",
"a. c #E5B74C",
"s. c #E4A958",
"d. c #C69B70",
"f. c #CBA96A",
"g. c #D2B070",
"h. c #E4B06A",
"j. c #6E7693",
"k. c #78879A",
"l. c #78A094",
"z. c #7C95BF",
"x. c #7993C8",
"c. c #7ECED0",
"v. c #7DD6DB",
"b. c #999486",
"n. c #94918F",
"m. c #A69884",
"M. c #BDA987",
"N. c #A8A69C",
"B. c #B7AA96",
"V. c #B8B29B",
"C. c #8F95B3",
"Z. c #8798BA",
"A. c #8DB4B3",
"S. c #AAA6A2",
"D. c #B6AFA1",
"F. c #BAB6A9",
"G. c #AFB4B1",
"H. c #CAAF8B",
"J. c #CCBA99",
"K. c #D6BC98",
"L. c #C5AFA8",
"P. c #C9BBA5",
"I. c #C8BFB6",
"U. c #E5B6A8",
"Y. c #97C1BF",
"T. c #B1C3B2",
"R. c #D5C195",
"E. c #D8C599",
"W. c #E0C39D",
"Q. c #D7C6A8",
"!. c #C9C6B8",
"~. c #D7CBB6",
"^. c #D8D2B6",
"/. c #E4D9BC",
"(. c #8196C9",
"). c #AFB6CA",
"_. c #88CEC5",
"`. c #9BCCCB",
"'. c #85D2CB",
"]. c #86D2D6",
"[. c #90D5DD",
"{. c #CACCC4",
"}. c #D2CEC3",
"|. c #D8D7C8",
" X c #DBDBD6",
".X c #E6DBC5",
"XX c #EAD6CC",
"oX c #DEE0D9",
"OX c #ECE1C3",
"+X c #EEE2CA",
"@X c #F3E5C6",
"#X c #F5E6CA",
"$X c #F5E9CB",
"%X c #F8EDCD",
"&X c #E8E5D5",
"*X c #ECE6DD",
"=X c #F5EBD7",
"-X c #EEF1DE",
";X c #F3F2DE",
":X c #FAF6DC",
">X c #C0CCE2",
",X c #EAEAE7",
"<X c #F9E9E7",
"1X c #F2EEEC",
"2X c #EEF4E9",
"3X c #F3F4E4",
"4X c #FCF4E4",
"5X c #F6F9E6",
"6X c #F4F4EC",
"7X c #FCF4EB",
"8X c #F5F9EC",
"9X c #FCFBED",
"0X c #EBEBF9",
"qX c #F7EFF3",
"wX c #FAECF9",
"eX c #EEF3F4",
"rX c #E9F4F7",
"tX c #EEFAF4",
"yX c #F6F6F6",
"uX c #FAF5F4",
"iX c #F3F9F4",
"pX c #FAFAF4",
"aX c #F5F5FA",
"sX c #FAF3FB",
"dX c #F4F9FB",
"fX c #FBFAFB",
/* pixels */
"yXyXyXyXyXyXyXyXyXyXyXyXyXyXyXyXyXaXyXyXyXyXyXyXyXaXyXyXyXyXyXyXyXyXyXyXyXyXiXyXyXyXyXaX7XiXaXsXaXaXyXyXyXyX",
"yXyXyXyXyXyXyXyXyXaXyXyXaXyXyXyXyXpXyXyXyXyXyXyXyXyXyXyXyXyXyXyXyXyXyXyXyXyXyXyXyXyXyXuXuXiX X,XaXsXyXyXyXyX",
"yXyXyXyXyXyXyXyXyXpXyXyXyXyXyXyXyXyXyXyXyXyXyXyXyXyXyXyXyXaXqXwXsXyXyXdXyXyXyXyXdXiXF.aX>XZ.>XrXyX8XyXyXyXyX",
"yXyXyXyXyXaXyXyXyXyXyXyXyXyXyXyXaXyXyXyXyXaXaXyXyXyXsXdXuXsXr.' }.dXdXyXpX6XtXyXrX,XOXC.x.x.(.x.k.0XuXyXyXyX",
"yXyXyXyXyXyXyXyXyXyXyXyXyXyXyXyXyXyXaXyXyXyXyXyXyXyXtXsX<XU _ W > XXI n B V m F 6XH %XG.x.x.x.x.(.0XyXyXyXyX",
"yXyXyXyXyXyXyXyXyXyXyXyXyXyXyXyXyXyXpXyXyXyXyXyXyXyX7XiX) ( d E u ) L <.r g 9 z a p |.j.Z.k.j.z.Z.).yXyXyXyX",
"yXyXyXyXyXyXyXyXyXaXyXyXyXyXfXyXyXyXyXyXyXyXyXyXyXuXdX2 Y I s : >.& n.& >.: 6 0 k h + S N.9XyX).C.yXyXyXyXyX",
"yXyXyXyXyXyXyXyXyXyXyXyXyXyXyXyXyXyXyXyXyXyXyXiXpX# V z E c d Y 2 Y.A.A.*.( 3 h k x c B b.F.yX0XfXyXyXyXyXyX",
"fXyXyXaXyXyXyXyXyXyXyXyXyXyXyXyXyXyXyXyXyXyXyXtXiX# , 4 f t v ( ; ].].].G.: K r k 0 w =.=.D.yXiXyXyXyXyXyXyX",
"aXyXyXyXaXdXyXyXyXyXaXyXyXyXyXyXyXyXyXyXyXyXyX6XsXuXO + X p B & ] n.].].`.U ; i k a =.-.M b.aXuXpXaXyXyXyXyX",
"uX6Xf.g.1X0X7XuXyXuXyXyXyXyXyXyXyXyXyXyXyXyXyXdXyXyX*X+ + # x h 9 P :.T.' L ` 8 v k r.t.#X# iXuXyXyXyXyXyXaX",
"yX/.T s.a.g.wXyX8XsXyXyXyXyXyXaXyXyXyXyXyXyXyXwXyXuXeX2X. } | i h 8 E J L m ] B C 6 r.m.@Xz uXyXaXyXyXyXyXyX",
"qXuXK.u.s.p.i.:XyXuXyXyXyXyXyXyXyXyXyXyXaXyXyXaXyX6XuXN.;X@.1 | - e l 1 & + ` { s s =..X3.z 6XyXyXyXyXyXyXyX",
"yXyXyX1X*Xe.p.p.e.eXqX3XaXyXyXyXyXyXyXyXyXyXyXiXiXL.U.&XXXJ.@.| ] r z 0 h k * o.{ 0 k k k h  XiXyXyXyXaXyXyX",
"yXyXyX8XiXqXqXH.y.s.6.0XuXyXyXyXyXyXyXyXyXyXyXiXtX&Xq.,XP.K.b K.| ~ d x p k s * M } p l l c }.yXyXyXyXpXyXyX",
"yXyXyXsXwX7X5XsXsXE.T g.4XaXyXyXyXdXaXyXiXyXyXuXeX,X3X7X7XE.R.R.K.e.~ b x e l p x Z 1 x l z yXyXyXyXyXyXyXyX",
"yXyXyXdXyXaXdXyX;XsX:X#.p.t.qX6XsXuX6XiXyXaXyXuXaX1X5X7X5XJ.R.R.R.W.H.! 4.x h c V } M e h B yXyXyXyXuXyXyXyX",
"yXyXyXyXyXyXyXyXyXyXiXrX7X8.u.7XrXtXaXwXyXyXyXsXyXyX{.9X7X9Xt.P.K.Q.H.Q.@.-.z e l 8 { 0 e 5XfX8X X!.m.8XiXyX",
"yXyXyXyXyXyXyXyXyXyXqXiXuXiX*X7.f.;XoXuXuXuXb.Q.8XyXyXpX7X4X5X7X4X7X7X7X=X;.-.V l l Z Z I.pX3X=X+.OXB.N.yXyX",
"yXyXyXyXyXyXaXyXyXyXyXuXyXuXyX8X~.h.h.J.pXyXr - 8 *X1X}.9X7X4X4X4X4X4X4XpXQ.9.-.Z x s w uX1X&X/.$X%Xw.F.yXyX",
"yXyXyXyXyXyXyXyXyXyXyXyXyXyXyXyX6X4XQ.d.i.b 2.&.4.@.b.B.H.4X3X7X7X7X7X7XpX*Xq.+.+.f k *X6X!.=X#X#X#X$X^.pXyX",
"yXyXyXyXyXyXyXyXyXyXyXyXyXyXyXyXaXeXaXdX8X| @.....7 Q.u ] : r.4X7X7X7XD.D B.;.;.O X f 0.V./.@X@X#X#X$X&XyXyX",
"dXyXyXyXyXyXyXyXaXyXyXyXyXyXyXyXuXuXuXyXpXr X.X.X.% ] [ ,.[ Q $ 3 ;.:.;.;.-.D uX=.+ e F.OX@X$X#X#X#XXX6XyXyX",
"yXyXyXyXyXyXyXaXyXyXyXyXyXyXyXyXyXyXyXyXaX<Xt $.} & <.,.,.,.[ [ [ Q ] 2 $ D.8X!.$XOXB +X@X@XOX/.+Xq.*XyXyXyX",
"yXyXyXyXaXyXyXyXyXyXyXyXyXyXyXyXyXyXyXyXyXyX7XG.,X%.<.,.,.,.<.<.E ` 3 D ;.m w.b.;X.XB.$X$X@X.XG OX^.}.yXyXyX",
"yXyXyXyXaXyXyXyXyXyXyXyXfXyXyXyXyXyXyXyXyXiXiXuXpX] W [ [ %.y O.q.m oX3XK.Z a z C 5 $X+X@Xq.$X@X%X^.!.yXyXyX",
"yXyXyXyXyXyXyXyXyXyXyXyXaXyXyXyXyXyXyXyXiXyXuXfX6XaXn M O..XXXq.D -X3XV ` d 0 = c f k ^.Q.$X#X/.#Xw.6XyXyXyX",
"yXyXyXyXyXyXyXyXyXyXyXyXyXyXyXyXyXyXyXyXyXyXyXyXM.:Xt.Z 7X6Xm e ;Xb.B.@.&.$...@.X z k i b.,XyXfXqX7XyXyXyXyX",
"yXyXyXyXyXyXyXyXyXyXyXyXaXyXyXyXyXyXyXyXyXyXyX,X5.j 7.7.Z G w ;X7X4Xy 5.$.$.$.$.@.* . e F.aXyXiXiXyXyXyXyXyX",
"yXyXyXyXyXyXyXyXyXyXyXyXyXyXyXyXyXyXyXyXyXyXyXdX^ 6.u.~ f.i.8...V.:X9.8  .@.| $.X.t f 2XeXyXyXyXyXyXyXyXyXyX",
"yXyXyXyXyXyXyXyXyXyXyXyXyXyXaXyXyXyXyXyXyXyXyXeX#Xi./ 8.8.R ~ ~ r e w w * ..X.@.% l k !.aXyXyXyXyXyXyXyXyXyX",
"yXyXyXyXyXyXyXyXyXyXyXyXyXyXaXyXyXyXyXyXyXyXyX2Xy ..i.R  .A 1.S 4.w # # = 8 7 p c c l T.yXuXyXyXyXyXyXyXyXyX",
"yXyXyXyXyXyXyXyXyXyXyXyXyXyXyXyXyXyXyXyXyXyXyXq 7 1 / ! 1.[.].c.l. .S H # , , c l k 7 |.dXyXyXyXyXyXyXyXyXyX",
"fXaXyXyXyXyXyXyXyXyXyXfXyXaXyXyXyXyXyXyXuXfX-Xk q * ^ ! A.v.].[.'.A @ ;Xo = = = s X 0  XyXaXyXyXyXyXyXyXyXyX",
"yXyXyXyXyXyXyXyXyXyXyXyXyXyXyXyXyXyXaXyX{.uXN.z # , ^ C [._.].v.`...O m fX  + < + # e 1XyXaXyXyXyXyXyXyXyXyX",
"yXyXyXyXyXyXyXyXyXyXyXyXyXyXyXyXyXyXyXyX-XC k h 5 B ! / l.'.'.c.N 6 7 h S yXuXuX,XuXdXiXaXyXyXyXyXyXyXyXyXyX",
"yXyXyXyXyXyXyXyXyXaXyXyXyXyXyXyXyXyXyXyXyXuXoX0.dXdX6X . .A 3.G +.9XS.+ q 2XaXyXaXyXiXyXyXyXyXyXyXyXyXyXyXyX",
"yXyXyXyXyXyXyXaXyXyXyXyXyXyXyXyXyXyXyXyXyXyXyXyXaXaXyXuX&X0.D.8X6XyX{.< !.8XyXaXyXyXaXyXyXyXyXyXyXaXyXyXyXyX",
"yXyXyXyXyXfXaXyXyXyXyXyXyXyXyXyXyXyXyXyXyXyXyXyXyXyXuXiXtX6XtXiX6XiXuXyXyXyXyXyXyXyXyXyXyXyXyXyXyXyXyXyXyXyX",
"yXyXyXyXyXyXyXyXyXyXyXfXyXyXyXyXyXyXyXyXyXyXyXyXyXyXyXsXsXuXsXyXdXiXiXaXaXsXyXaXyXyXyXyXyXyXyXyXyXyXyXyXyXyX"
};
