/* XPM */
static char *_3d32f85cdc34384fd6711606331d866gut54pyV2ElfP6XJ[] = {
/* columns rows colors chars-per-pixel */
"40 40 174 2 ",
"   c #020101",
".  c #0C0103",
"X  c #100806",
"o  c #3B1B10",
"O  c #292619",
"+  c #39211A",
"@  c #3E2523",
"#  c #322E21",
"$  c #3F3A2A",
"%  c #402725",
"&  c #423A2B",
"*  c #7A2B29",
"=  c #663420",
"-  c #4F483A",
";  c #594335",
":  c #77483F",
">  c #645E3D",
",  c #6C5F3D",
"<  c #66603A",
"1  c #6A623D",
"2  c #5F5545",
"3  c #625C43",
"4  c #7D5E47",
"5  c #676245",
"6  c #6C6341",
"7  c #776D48",
"8  c #6F735F",
"9  c #833122",
"0  c #8E3E2B",
"q  c #823736",
"w  c #FD0E0E",
"e  c #FB0C10",
"r  c #F70B1B",
"t  c #8F5638",
"y  c #A1513A",
"u  c #885E4E",
"i  c #9C5C4F",
"p  c #8D5E54",
"a  c #955B55",
"s  c #9B5C56",
"d  c #975B5A",
"f  c #9B5B58",
"g  c #B85A4B",
"h  c #B44653",
"j  c #806858",
"k  c #847A58",
"l  c #A86746",
"z  c #B76D4D",
"x  c #BC6F4B",
"c  c #BE714C",
"v  c #AB6451",
"b  c #B06855",
"n  c #BA6D53",
"m  c #B36C59",
"M  c #AE735A",
"N  c #BB7352",
"B  c #9A6B67",
"V  c #857C64",
"C  c #8B7F62",
"Z  c #BE7E61",
"A  c #A67C7B",
"S  c #C26F48",
"D  c #C1724B",
"F  c #DE685F",
"G  c #E2665F",
"H  c #E3685D",
"J  c #788868",
"K  c #8DB95C",
"L  c #94B657",
"P  c #95BB56",
"I  c #9FBB57",
"U  c #94B65D",
"Y  c #99B65D",
"T  c #95B85E",
"R  c #99BD5E",
"E  c #8F8363",
"W  c #8D836A",
"Q  c #918464",
"!  c #92846A",
"~  c #9C8E6C",
"^  c #8F8673",
"/  c #9B9072",
"(  c #A4976F",
")  c #A29570",
"_  c #A59B74",
"`  c #AB9C76",
"'  c #A59C7D",
"]  c #AB9D7A",
"[  c #94B661",
"{  c #9AB663",
"}  c #95B861",
"|  c #99BB63",
" . c #9EB36E",
".. c #9BBC6D",
"X. c #A1B56C",
"o. c #AAA073",
"O. c #ADA17C",
"+. c #ABBE7A",
"@. c #C7815A",
"#. c #C8895F",
"$. c #C68962",
"%. c #C88A61",
"&. c #9DC257",
"*. c #9BC25C",
"=. c #9FC85E",
"-. c #A1C25E",
";. c #A0C95D",
":. c #ACCA5D",
">. c #A5D45D",
",. c #ABD95C",
"<. c #B5D55A",
"1. c #ABE356",
"2. c #AEE25D",
"3. c #ACEA5D",
"4. c #B5E45A",
"5. c #B1E35D",
"6. c #9DC462",
"7. c #9DC861",
"8. c #A4C362",
"9. c #AAC767",
"0. c #A4CA63",
"q. c #A5CA6A",
"w. c #A8CE6D",
"e. c #B1CE62",
"r. c #A5D261",
"t. c #AAD563",
"y. c #AFDC63",
"u. c #ACD66D",
"i. c #B8D664",
"p. c #B2DF65",
"a. c #ABC078",
"s. c #AED673",
"d. c #AEE361",
"f. c #AFE361",
"g. c #B0E261",
"h. c #B2E362",
"j. c #B1E462",
"k. c #C1DB65",
"l. c #C2E265",
"z. c #C4E964",
"x. c #CBEB66",
"c. c #CBE668",
"v. c #C9E76A",
"b. c #D2E866",
"n. c #D5ED6C",
"m. c #DDED6B",
"M. c #D7F16C",
"N. c #DBF16C",
"B. c #DDEF75",
"V. c #DAF271",
"C. c #A59D83",
"Z. c #A69D87",
"A. c #B3A786",
"S. c #ACB384",
"D. c #B9BB96",
"F. c #E58987",
"G. c #CEBE92",
"H. c #D0BF93",
"J. c #C4B9A4",
"K. c #B2C48A",
"L. c #BAC597",
"P. c #CAC79A",
"I. c #E4C49F",
"U. c #C9E089",
"Y. c #D5EF81",
"T. c #CDCDB7",
"R. c #D0C8B4",
"E. c #D0C9BA",
"W. c #E3D0A4",
"Q. c #E9C8B7",
"!. c #DBD6C6",
"~. c #F1EDE1",
"^. c #F3F0EB",
"/. c #FCFDF9",
/* pixels */
"T T T s.T T T T T n.U h.U U T T T T T T U U T 4.U U U T T U u.T } T T T N.U T T ",
"T U } } U d.T T 5.Y 2.5.2.} T } T X.e { T T U [ U U U T U T T T y.T } =.U d.2.h.",
"T t.} } U Y >.2.U T U 2.U T U [ U r w e h.U U [ h.d.U } 2.[ n.[ { [ 2.P T { T T ",
"} *.[ T U 2.=.U 5.T U [ U } j.L 2.w e w +.U U U U N.T 7.U Y T [ 5.j.} =.T T 2.T ",
"T T T T U } ;.[ } 1.Y 5.T T T T 5.w e w a.5.l.U 2.T T T T [ T T T 5.{ T d.T U T ",
"T U } T U T U [ T U U U T T T T U w w w 9.T T p.t.T T T U T q.T T I T T U [ T T ",
"T T U U 5.U U d.h.U U U T T T N.} w w w Y U -.T } U T T T T U h.P } d.z.T T } } ",
"T T } U [ } T T } T T T T U T U h.W.w I.Y y.T U T U T T U U U U T } } U T U T T ",
"T k.h.Y R b.{ T T U | | 8.U [ c.*.1.h.K R P T b.U [ U T c.h.} R b.Y [ U } R ,.-.",
"q.U T T U } T T } y.} T U T T T T X.e Q.T T T 5.T 5.U 8.T T T T T T U [ 2.T T T ",
"T T U L 4.U T 2.T T T T T T T } U p.w Q.T R K U [ U h.U T U [ 5.T T 2.T T U T T ",
"T -.2.2.Y } h.r.U :.T 2.h.{ h.l.T T :.R U 5.7.[ U U T 0.U d.t.U U 5.>.T 9.T ;.2.",
"T ,.[ T 5.T } U d.[ U U d.U [ 5.T h.[ U d.[ [ T U h.P T 5.T h.5.T Y U ;.} L T j.",
"T T U U } T T | T [ T T } U T } Q.X. . .X.T T T T U U T T T T [ T T { T } T T | ",
"T 6.T q.T } U T T <.7.2.e.} A A @.Z l l v j 7 z.U T [ T 8.U q.U [ U T T i.;.;.e.",
"} U } V.T N.Y d.N.T j.[ } B $.$.%.%.@.D n D d   y.d.T T } U 2.U N.U d.e.T j.T U ",
"3.t.U T 5.T >.U } [ L [ J.$.$.#.%.%.@.D D D n d   [ U r.1.[ T 2.U [ U U U T T T ",
"T >.U T U 2.=.U 5.T } i.v D #.#.%.$.D D D D D S ; e.U R r.U T U h.2.U ;.T T z.T ",
"T T U T T T [ U U B.Y [ t S /.D D N Q.c D D S f M J U U T T U T T U U Y m.U L T ",
"T Y T T U T e.U T [ T ..t S   S D c + D D D D D d J U 6.U T T T T N.T [ U U } T ",
"T { >.L x.U [ 6.h.U q.4 D c o D D c = D D D S v m % { T U >.} x.T T 6.t.U w.T U ",
"} 4.L T U 2.k.U T U U . S g 9 9 9 9 D D D D S f m % | T 5.L [ T 3.U U T U U M.U ",
"T T N.P h.U [ U [ [ ,.. g F.F.H F h t D D D f D f % { T T V.[ d.U T T T T 5.T N.",
"R q.} } T T T U U 6.T . y F.F.H H h 0 D D D S f f % { } w.T T } U T T U *.Y T U ",
"T T } 5.[ T >.2.Y Y R . y h G h h h * n c c s c f % 3 6 6 [ L } U U 2.U T T L U ",
"T 8.h.5.U } ;.} Y , < . v *       . q n D s s f f % > ] ] 6 [ } U 2.} T N.T h.2.",
"u.T T T T T T 1.k O.] . f c s s s s s m s s f s s @ > ` O.' 1 1 1 R y.} T U T 1.",
"T } T T T T | ! ` ( ( . f s n n z z b s s s s s p + > 1 C k 7 O._ 6 1 K.U U T T ",
"U w.T T { T T W ] ` ( & @ a s s f f f f s s s 4 E 2 1 O 1 k ` ` Q Q Q O U 2.5.M.",
"U t.T Y P +.k P.H.H.P.` W . f s f f s f s s . O.] ~ Q 5   E ] ( Q Q Q   5 8 } U ",
"m.t.[ T P , k H.G.H.P.O.k . Q , 1 1 u       O.] ` ~ Q Q   1 1 Q     E ` ` T T T ",
"T h.[ U U ] ] Q G.P.] O.- V H.G.P.] # O.Q   ] ] ] ~ Q E   ] >   ^ ] _ =.U T N.T ",
"} T T T T R S.] ] ] Q W $ _ G.G.` ' O Q Q Q 1 ] Q Q ! Q > ` ] ` ` [ U [ [ [ U U ",
"T T U U Y Y.!.] /.] ] W - ] ] ] ] E O ! Q Q   Q Q 7 . 1 ] ] O.!.~.] 2.r.U U q.U ",
"T T 1.Y n.[ S.[ C.U s.O./ C.] Z.] ` E E ! 1 ^ Z._ C.` O.^.Z.U R.C.T { =.U s.T T ",
"T l.5.T U V.U T U Y D.U L.T.D.R.R.] J.P.E.L.T.V.[ K.L.T P.5.K K.Y.[ T T U U 4.U ",
"T T Y h.5.U T T U T d.h.[ +.[ a.A.K.D.T a.| U.[ } h.T T T T T 2.[ T T k.T h.T [ ",
"T w.T U T T T T T [ T U U U [ U [ P U [ T T [ T T T T T u.U T T T T T T [ U T U ",
"T &.d.j.Y U x.2.U T U 5.j.U h.N.T T [ 8.U 2.L U T T T e.[ 2.5.U [ 2.5.[ U U U 2.",
"T ,.5.5.N.T :.} 2.P w.P d.T { { U T T U 2.2.j.} U U T T 2.2.K m.T M.} 2.T w.h.2."
};
