/* XPM */
static char *_acbb299ef99482fe034592c4fd973ecC4TVAdO5FR07gN9g[] = {
/* columns rows colors chars-per-pixel */
"40 40 134 2 ",
"   c #2F1D0F",
".  c #331D14",
"X  c #361F1C",
"o  c #30200D",
"O  c #2C2613",
"+  c #2E231C",
"@  c #322215",
"#  c #3B2416",
"$  c #3B2915",
"%  c #33241C",
"&  c #3A251C",
"*  c #362A1D",
"=  c #3C2C1D",
"-  c #2D2523",
";  c #2B2926",
":  c #322522",
">  c #3B2524",
",  c #352A25",
"<  c #3B2C24",
"1  c #332628",
"2  c #372B2B",
"3  c #3C2C2A",
"4  c #3E3124",
"5  c #3D312B",
"6  c #3A3031",
"7  c #4D2E14",
"8  c #40251E",
"9  c #422D1E",
"0  c #482E1D",
"q  c #4B3716",
"w  c #43331E",
"e  c #4C351E",
"r  c #46381D",
"t  c #4D391D",
"y  c #51371C",
"u  c #523B1E",
"i  c #5B3C1E",
"p  c #412E23",
"a  c #492E23",
"s  c #422E2B",
"d  c #443324",
"f  c #4B3423",
"g  c #4D3B24",
"h  c #45342A",
"j  c #4B352B",
"k  c #46382B",
"l  c #4D3B2B",
"z  c #513725",
"x  c #533B25",
"c  c #5A3D24",
"v  c #52362B",
"b  c #533B2A",
"n  c #583E2B",
"m  c #442C33",
"M  c #423331",
"N  c #4B3631",
"B  c #473D32",
"V  c #4D3D32",
"C  c #4D3C34",
"Z  c #4E3E36",
"A  c #513D30",
"S  c #513E33",
"D  c #553C30",
"F  c #543834",
"G  c #593D31",
"H  c #5B441B",
"J  c #4D4026",
"K  c #4D412C",
"L  c #574020",
"P  c #514125",
"I  c #534224",
"U  c #564224",
"Y  c #564226",
"T  c #5A4323",
"R  c #584025",
"E  c #5B4325",
"W  c #5B4926",
"Q  c #5D4926",
"!  c #5F4A26",
"~  c #544028",
"^  c #54422B",
"/  c #50402C",
"(  c #55432C",
")  c #59402A",
"_  c #594629",
"`  c #5D4428",
"'  c #5C442B",
"]  c #5B452D",
"[  c #5D452C",
"{  c #5D452E",
"}  c #57492D",
"|  c #5D492B",
" . c #5D4B2C",
".. c #4D4031",
"X. c #534232",
"o. c #524333",
"O. c #5F4531",
"+. c #5F4631",
"@. c #5C4633",
"#. c #5D4734",
"$. c #554931",
"%. c #5D4B32",
"&. c #5C4E37",
"*. c #614C25",
"=. c #63472B",
"-. c #60482D",
";. c #634C2D",
":. c #654C2E",
">. c #684D2B",
",. c #6E4E2E",
"<. c #65512A",
"1. c #6B522C",
"2. c #6C542E",
"3. c #604731",
"4. c #614433",
"5. c #654E31",
"6. c #644D33",
"7. c #674F32",
"8. c #6B4E33",
"9. c #624939",
"0. c #624D39",
"q. c #604E3B",
"w. c #684E3F",
"e. c #665135",
"r. c #695130",
"t. c #6B5331",
"y. c #6E5132",
"u. c #6C5335",
"i. c #635038",
"p. c #6A543B",
"a. c #6C593D",
"s. c #745034",
"d. c #715434",
"f. c #675240",
/* pixels */
"% 2.v b -.t.y.d.c z 1.;.t.6.t.b l b x _ 1.7.x ~ ;.( b v v 4 l v x v v < < k 1 - ",
"% u.] v n x b b n b c x v b b , < d j v x b v c b 8 v a v b v l b p z K r = + , ",
", z H c [ z x x x x v x b f c b g g x x z b l c x ) x x x b x v c x z [ x k 3 % ",
": % p o * = = & @ & < < < = + . = % O + + O * * = , . = % @ = 4 = < & = < & 3 6 ",
"W g w - + } ~ [ g } &.% d g 3 < l a _ =.z z 3.z 4.w 4 l < % 2 < h d +.g n  .%.g ",
"x b l g @ Q l D 9. .+.Z , 2 x z c l l s q.b x < 5 o.9 Q _ g < z n v x b v b v F ",
"z a v 4 5 u < j x x z q < l c x x x b x b b n $ @ e % c x $ ~ c x x  .` x v # V ",
"v x a h , *.d v ) c z Y _ z ) ) x b b b b b b z g _ % u n ~  .] c n Y b b x b l ",
"x c l x < g = j x  .3. .c x x x b Y x g x g x K l K p Q 3.~ x g x g f +.@.u %.l ",
", , + : - - 3 < * , > % % % , , % < , 3 < 2 < < < 3 + % < , , < , 3 = = X 2 < 3 ",
"u z c v b & < k g g g V , % y.y.8. .P g %.g g g g g P g u J t  ._ x } 5 . w Q x ",
"b v f < + % f b b b b g X.) T N B l ( v l A V c v v g x c b c f b b W @ p.w.u G ",
"E c _ Y _ f x v b b b v < i.L d d l j x b b l b v x =.E x [ x ` x Y j 5 x Y [ b ",
"c e c x ) x b v x v x l : X.g x 7.c x b ] b b v b x c x g b f c r c g < 0.7.` x ",
"b b b x x x b x c b b X.( W q  .t ( g K / b b g x Y x x c Y x P x ~ b & >.T x b ",
"3 5 < 4 5 p 3 d < 3 3 M 3 < 3 + % * , 4 < 3 < > 5 % + : 2 < 5 < 4 < < 2 % $ d = ",
"` t 6.c u. .z t.z g g b v j K g x x x g b g g P x Q } x g %.} q./ P E = 3 2 3 8.",
"j v 4 b ) c g Y g g Y Y ~ c x x z Y _ u b x x g x k g x b b b 0 ) b c H / 5 , h ",
"q.3 h X.< d K 5 h l b x a v v x 7.~ c x x ] f +.D % < h % V 4 f x x x  . .< 1 5 ",
",.Y 1.*.a.v b b g g u.u b ) x c c x b v x x c P x Z b b ~ x b n b c Q Q o.+ n s.",
"9.v ( b l / p.} / Y / b l b P l l b b b / n b J Y P A b b b b b v `  .j 3 + < 6.",
"d < d 5 h * 4 4 5 * * d , , w p < 3 5 3 1 < . > 3 : % % 3 3 5 d , , < 3 5 % = 0 ",
"x x x z Y x  .t x E Q $.% @ 1.1.:.A p d < $ u 7.e. .H } x x K J : , j x u c =.v ",
"x b  .1.;.c ) x x b [ #.: : x 9 l < 3 j c x x ~ b x 0 x # = h 5 + , l d b x <.x ",
"v 8 Y u g x x c c x x j , + : > o.4 } x x 4.b x 3.x v b v < 3 3 , : , = k N = < ",
"b n x b b g x x z | ` j + 4 l g z b c b f y x x x c b b y z o.< - : b x / x x g ",
"D X.A l X.l ....Z b Z h ; C a.x e.p.l ..A A Z A A Z S S S S S N - Z o.l b Z A Z ",
"d l h l k 3 < l p X.l d , : 2 2 1 M l k l h d k h h h h N k k 5 d & h j g k h h ",
"v x w @ j m $ e X ~ b p g q.g :.} b x x ` -.c x x x c b } & o l 9 # > b n x x b ",
"% ~ k j K % 9 ` f.H 1.$.~ j c z x v # S g c b 0 v b x x z % 3 K V c ~ e u x b a ",
"l r l  .< +   c x n x l j x t f z x x x z z x v b c x x x @ & v j 7 % X n c b b ",
"l &.} K < - & i.e.i.3.K ( e.t.e.%.l $.#. .x P v v l v l l l j ..g e.G G f.b l J ",
"l h s j d z p h k h h p % 6 j > N 3 l d r d r h j l d k ~ f s 3 d 3 3 F d h h k ",
"E c 7.~ Y E u c c y x g f c b = 5 r i = v [ n u u x u x u u c x u = > ;.y x z c ",
"z x b v b n b z n b x x d , b < , , l s l p P  .g g [ c b b b x c O ; $ Z < + c ",
"& k h f v b v a & j P z x j b h , 1 3 < , p i z = * X.l x v b b x % % p.x x k < ",
"z z v v b b z b # K l b x x v h , * , = b x 7.#.l V 5 l b b x P x < : t.-.z y O ",
"d s d k h d d k j d d h h h h 4 3 3 2 $.d Z m h < 3 < < d k d j h h ; < g g b j ",
", = i.( $.$.$.( J v b b b l +.e.f.d q. .b r } Q %.J l o.) b b l o.[ g g #.M 2 - ",
"% y.c b x b v b b b v x b c x ` n [ 8.j c v x x v x c x v x v v b x b b P E = ; "
};
